<svg width="16" height="16" viewBox="0 0 16 16" fill="none" xmlns="http://www.w3.org/2000/svg">
<path opacity="0.5" d="M4.3002 9.49922C4.0002 9.29922 3.8002 8.99922 3.7002 8.69922L2.8002 10.1992H0.800195C0.500195 10.1992 0.200195 10.4992 0.200195 10.7992C0.200195 11.0992 0.500195 11.3992 0.800195 11.3992H3.1002C3.3002 11.3992 3.5002 11.2992 3.7002 11.0992L4.5002 9.69922L4.3002 9.49922Z" fill="white"/>
<path fill-rule="evenodd" clip-rule="evenodd" d="M3.20003 6.10017L4.50003 4.70017L5.70003 5.30017L4.10003 8.00017C4.00003 8.40017 4.20003 8.90017 4.60003 9.10017L4.70003 9.20017L7.00003 10.5002V12.4002C7.00003 12.7002 7.30003 13.0002 7.60003 13.0002C7.90003 13.0002 8.10003 12.7002 8.10003 12.4002V10.2002C8.10003 10.0002 8.00003 9.90017 7.90003 9.80017C7.90003 9.80017 7.90003 9.80017 7.80003 9.80017C7.80003 9.80017 7.80003 9.80017 7.70003 9.80017L6.40003 8.90017L7.60003 6.80017L7.90003 6.20017C8.10003 5.80017 8.00003 5.40017 7.80003 5.20017L6.90003 4.70017L6.70003 4.60017C6.60003 4.60017 6.60003 4.60017 6.60003 4.50017L4.60003 3.50017C4.30003 3.40017 4.00003 3.50017 3.80003 3.70017L2.30003 5.40017C2.10003 5.60017 2.10003 5.90017 2.40003 6.10017C2.60003 6.40017 2.90003 6.30017 3.20003 6.10017Z" fill="white"/>
<path d="M8.90039 5C9.72882 5 10.4004 4.32843 10.4004 3.5C10.4004 2.67157 9.72882 2 8.90039 2C8.07196 2 7.40039 2.67157 7.40039 3.5C7.40039 4.32843 8.07196 5 8.90039 5Z" fill="white"/>
<path d="M8 8L13 8" stroke="white" stroke-width="2"/>
<path d="M12 4V12L16 8L12 4Z" fill="white"/>
</svg>
