<svg width="16" height="16" viewBox="0 0 16 16" fill="none" xmlns="http://www.w3.org/2000/svg">
<path fill-rule="evenodd" clip-rule="evenodd" d="M7 3H5C2.23858 3 0 5.23858 0 8C0 10.7614 2.23858 13 5 13H7V11H5C3.34315 11 2 9.65685 2 8C2 6.34315 3.34315 5 5 5H7V3ZM9 11H11C12.6569 11 14 9.65685 14 8C14 6.34315 12.6569 5 11 5H9V3H11C13.7614 3 16 5.23858 16 8C16 10.7614 13.7614 13 11 13H9V11Z" fill="white"/>
<rect x="12" y="7" width="2" height="8" rx="1" transform="rotate(90 12 7)" fill="white"/>
</svg>
