<svg width="16" height="16" viewBox="0 0 16 16" fill="none" xmlns="http://www.w3.org/2000/svg">
<g clip-path="url(#clip0_2835_554)">
<path d="M7.545 11.665V3.235H6.675C6.225 3.235 5.86 3.255 5.58 3.295C5.31 3.335 5.105 3.41 4.965 3.52C4.835 3.62 4.76 3.76 4.74 3.94L4.59 5.575H3.69V2.35H12.78V5.575H11.895L11.73 3.94C11.72 3.76 11.645 3.62 11.505 3.52C11.375 3.41 11.17 3.335 10.89 3.295C10.61 3.255 10.245 3.235 9.795 3.235H8.94V11.665C8.94 11.885 9.065 12.03 9.315 12.1C9.565 12.17 9.875 12.205 10.245 12.205H10.5V13H5.97V12.205H6.24C6.61 12.205 6.92 12.17 7.17 12.1C7.42 12.03 7.545 11.885 7.545 11.665Z" fill="white"/>
</g>
<defs>
<clipPath id="clip0_2835_554">
<rect width="16" height="16" fill="white"/>
</clipPath>
</defs>
</svg>
