<svg xmlns="http://www.w3.org/2000/svg" viewBox="0 0 20 20"><g transform="matrix(1, 0, 0, 1, -289.678955078125, -259.2710266113281)" id="object-0"><g id="Layer_2" data-name="Layer 2" transform="matrix(1, 0, 0, 1, 289.678925, 259.087524)"><g id="Layer_4" data-name="Layer 4"><path class="cls-1" d="M16,2H4A4,4,0,0,0,0,6v4a4.14,4.14,0,0,0,4,4H9v5l8-6L9,7v5H4.5A2.36,2.36,0,0,1,2,9.5v-3A2.36,2.36,0,0,1,4.5,4h11A2.36,2.36,0,0,1,18,6.5V9a3,3,0,0,1-.69,2l1.88,1.41A4,4,0,0,0,20,10V6A4,4,0,0,0,16,2Z" style="fill: rgb(255, 255, 255); fill-rule: evenodd;"/><rect class="cls-2" width="20" height="20" style="fill: none;"/></g></g><rect x="0.923" y="8.6" width="9.932" height="10.75" rx="0.5" transform="matrix(0.707107, -0.707107, 0.707107, 0.707107, 285.149139, 265.776947)" stroke="white" style=""/><path d="M 295.577 267.934 L 299.388 264.298 L 299.388 270.359 L 293.037 270.359 L 295.577 267.934 Z" fill="white" style=""/><path d="M 296.8 275.588 L 292.99 271.952 L 299.34 271.952 L 299.34 278.013 L 296.8 275.588 Z" fill="white" style=""/></g></svg>